HIERARCHY
ROOT Hips
{
	OFFSET 0.00000 0.00000 0.00000
	CHANNELS 6 Xposition Yposition Zposition Zrotation Yrotation Xrotation 
	JOINT LHipJoint
	{
		OFFSET 0 0 0
		CHANNELS 3 Zrotation Yrotation Xrotation
		JOINT LeftUpLeg
		{
			OFFSET 1.37733 -1.58235 0.71371
			CHANNELS 3 Zrotation Yrotation Xrotation
			JOINT LeftLeg
			{
				OFFSET 2.33951 -6.42775 0.00000
				CHANNELS 3 Zrotation Yrotation Xrotation
				JOINT LeftFoot
				{
					OFFSET 2.30523 -6.33358 0.00000
					CHANNELS 3 Zrotation Yrotation Xrotation
					JOINT LeftToeBase
					{
						OFFSET 0.05388 -0.14857 1.53863
						CHANNELS 3 Zrotation Yrotation Xrotation
						End Site
						{
							OFFSET 0.00000 -0.00000 0.79208
						}
					}
				}
			}
		}
	}
	JOINT RHipJoint
	{
		OFFSET 0 0 0
		CHANNELS 3 Zrotation Yrotation Xrotation
		JOINT RightUpLeg
		{
			OFFSET -1.47839 -1.58235 0.71371
			CHANNELS 3 Zrotation Yrotation Xrotation
			JOINT RightLeg
			{
				OFFSET -2.26534 -6.22397 0.00000
				CHANNELS 3 Zrotation Yrotation Xrotation
				JOINT RightFoot
				{
					OFFSET -2.27037 -6.23779 0.00000
					CHANNELS 3 Zrotation Yrotation Xrotation
					JOINT RightToeBase
					{
						OFFSET -0.09543 -0.26220 1.62615
						CHANNELS 3 Zrotation Yrotation Xrotation
						End Site
						{
							OFFSET -0.00000 -0.00000 0.83991
						}
					}
				}
			}
		}
	}
	JOINT LowerBack
	{
		OFFSET 0 0 0
		CHANNELS 3 Zrotation Yrotation Xrotation
		JOINT Spine
		{
			OFFSET 0.00101 1.81877 -0.00412
			CHANNELS 3 Zrotation Yrotation Xrotation
			JOINT Spine1
			{
				OFFSET 0.00322 1.81934 -0.03962
				CHANNELS 3 Zrotation Yrotation Xrotation
				JOINT Neck
				{
					OFFSET 0 0 0
					CHANNELS 3 Zrotation Yrotation Xrotation
					JOINT Neck1
					{
						OFFSET -0.13795 1.66192 0.22650
						CHANNELS 3 Zrotation Yrotation Xrotation
						JOINT Head
						{
							OFFSET 0.14844 1.65995 -0.39123
							CHANNELS 3 Zrotation Yrotation Xrotation
							End Site
							{
								OFFSET 0.04109 1.72502 -0.16783
							}
						}
					}
				}
				JOINT LeftShoulder
				{
					OFFSET 0 0 0
					CHANNELS 3 Zrotation Yrotation Xrotation
					JOINT LeftArm
					{
						OFFSET 3.25446 1.41983 0.32106
						CHANNELS 3 Zrotation Yrotation Xrotation
						JOINT LeftForeArm
						{
							OFFSET 4.05444 -0.00000 -0.00000
							CHANNELS 3 Zrotation Yrotation Xrotation
							JOINT LeftHand
							{
								OFFSET 3.21205 -0.00000 0.00000
								CHANNELS 3 Zrotation Yrotation Xrotation
								JOINT LeftFingerBase
								{
									OFFSET 0 0 0
									CHANNELS 3 Zrotation Yrotation Xrotation
									JOINT LeftHandIndex1
									{
										OFFSET 0.70741 -0.00000 0.00000
										CHANNELS 3 Zrotation Yrotation Xrotation
										End Site
										{
											OFFSET 0.57033 -0.00000 0.00000
										}
									}
								}
								JOINT LThumb
								{
									OFFSET 0 0 0
									CHANNELS 3 Zrotation Yrotation Xrotation
									End Site
									{
										OFFSET 0.57904 -0.00000 0.57904
									}
								}
							}
						}
					}
				}
				JOINT RightShoulder
				{
					OFFSET 0 0 0
					CHANNELS 3 Zrotation Yrotation Xrotation
					JOINT RightArm
					{
						OFFSET -3.30007 1.25485 0.33947
						CHANNELS 3 Zrotation Yrotation Xrotation
						JOINT RightForeArm
						{
							OFFSET -3.74048 -0.00000 -0.00000
							CHANNELS 3 Zrotation Yrotation Xrotation
							JOINT RightHand
							{
								OFFSET -3.16030 -0.00000 0.00000
								CHANNELS 3 Zrotation Yrotation Xrotation
								JOINT RightFingerBase
								{
									OFFSET 0 0 0
									CHANNELS 3 Zrotation Yrotation Xrotation
									JOINT RightHandIndex1
									{
										OFFSET -0.71703 -0.00000 0.00000
										CHANNELS 3 Zrotation Yrotation Xrotation
										End Site
										{
											OFFSET -0.57809 -0.00000 0.00000
										}
									}
								}
								JOINT RThumb
								{
									OFFSET 0 0 0
									CHANNELS 3 Zrotation Yrotation Xrotation
									End Site
									{
										OFFSET -0.58691 -0.00000 0.58691
									}
								}
							}
						}
					}
				}
			}
		}
	}
}
MOTION
Frames: 7
Frame Time: .0083333
13.0532 13.4567 -9.2951 -333.6260 -38.5507 58.0015 0.0000 0.0000 0.0000 -7.6429 -14.1559 -35.6167 0.5189 4.6169 12.8190 -1.2414 -19.8052 2.4995 0.7362 5.4817 15.2877 0.0000 0.0000 0.0000 1.6062 3.7701 -122.9413 -15.2294 -19.4454 75.9269 -1.4915 13.4951 31.3877 -10.9285 17.8999 -62.5493 13.2482 -5.1428 29.6049 5.3418 -1.9563 5.6553 -0.6361 -1.2108 -9.2324 -1.3838 -2.2795 -28.0426 4.7942 -3.4410 9.3795 1.3564 -1.2224 7.4407 0.0000 0.0000 0.0000 -64.0987 -28.1582 11.8606 13.1392 -21.4909 -2.5041 -0.0000 0.0000 -42.6677 35.7513 -21.5922 -14.8387 -7.1250 0.0000 -0.0000 4.3369 4.0470 -4.0318 0.0000 0.0000 0.0000 45.9275 23.5303 9.8439 -17.4132 27.3993 -4.2758 0.0000 0.0000 17.1645 -29.1053 6.4460 -3.5764 7.1250 -0.0000 -0.0000 -1.7301 -22.6128 -0.9323
13.1129 13.4628 -9.3717 -334.9620 -35.9312 58.3622 0.0000 0.0000 0.0000 -7.0140 -14.1414 -35.5474 0.4641 4.3699 12.1197 -1.1509 -19.3484 1.4562 0.7267 5.4467 15.1872 0.0000 0.0000 0.0000 2.2368 3.8197 -122.1505 -15.2708 -19.4551 76.0511 -1.4332 14.2090 31.6383 -10.9434 17.9073 -62.5977 13.5260 -5.1790 30.2182 5.1156 -1.8083 5.5476 -1.0341 -1.1655 -9.5942 -1.2547 -2.2330 -27.8787 4.8611 -3.4315 9.3666 1.3606 -1.2062 7.4116 -0.0000 -0.0000 0.0000 -65.0060 -27.8417 13.0908 13.7872 -22.4297 -2.7464 -0.0000 0.0000 -44.0061 35.3492 -21.1318 -14.3445 -7.1250 0.0000 -0.0000 4.1723 4.6826 -3.8281 -0.0000 -0.0000 0.0000 45.2985 23.2082 10.1042 -17.8347 27.9450 -4.4715 0.0000 0.0000 16.6095 -28.4246 6.7609 -3.6460 7.1250 -0.0000 -0.0000 -1.2136 -22.3030 -0.6624
13.1649 13.4756 -9.4462 -336.3230 -33.2944 58.6917 0.0000 0.0000 0.0000 -6.2311 -14.0758 -35.5434 0.4329 4.2221 11.7023 -0.9974 -18.7807 -0.7202 1.5226 7.7916 22.0829 0.0000 0.0000 0.0000 2.8062 3.8950 -121.1080 -15.2376 -19.4473 75.9515 -1.3702 14.4270 31.4382 -10.8979 17.8848 -62.4497 13.6265 -5.1797 30.7847 4.9670 -1.6715 5.4597 -1.2622 -1.1200 -9.9125 -0.9641 -2.0910 -27.6811 4.7094 -3.3130 9.3144 1.2808 -1.1557 7.3528 -0.0000 0.0000 0.0000 -65.9829 -27.5889 14.0801 14.0951 -22.8705 -2.8650 -0.0000 0.0000 -44.5085 35.2331 -21.3320 -14.4092 -7.1250 0.0000 -0.0000 4.0655 4.4819 -3.7450 -0.0000 0.0000 0.0000 45.0472 23.2045 9.3475 -17.9545 28.0988 -4.5278 0.0000 0.0000 16.4337 -26.9867 7.0820 -3.5925 7.1250 -0.0000 -0.0000 -0.1468 -22.0428 -0.0810
13.2134 13.4891 -9.5097 -337.3600 -31.0326 58.8541 0.0000 0.0000 0.0000 -5.9107 -14.2426 -35.5117 0.4202 4.1604 11.5283 -0.7194 -17.0532 -2.7392 2.8083 10.3781 30.2101 0.0000 0.0000 0.0000 2.8679 3.8366 -119.9625 -15.1798 -19.4336 75.7777 -1.4108 14.0157 31.3298 -10.8835 17.8776 -62.4028 13.2885 -5.1310 31.0743 4.6738 -1.6940 5.5134 -1.3871 -1.1190 -9.9857 -0.4837 -1.8369 -27.6094 4.5731 -3.1105 9.1048 1.1875 -1.0580 7.2558 -0.0000 -0.0000 0.0000 -66.8137 -27.7738 14.3308 13.8967 -22.5868 -2.7883 -0.0000 0.0000 -43.6703 35.1741 -21.5112 -14.4893 -7.1250 0.0000 -0.0000 3.9976 4.2912 -3.6965 -0.0000 -0.0000 0.0000 44.9905 23.2736 8.5076 -18.0085 28.1680 -4.5532 0.0000 0.0000 16.3469 -24.8846 7.6966 -3.5548 7.1250 -0.0000 -0.0000 1.4090 -21.5074 0.7946
13.2591 13.5022 -9.5641 -338.4760 -29.0503 58.9814 0.0000 0.0000 0.0000 -5.5908 -14.6180 -35.2024 0.4124 4.1225 11.4217 -0.3959 -14.5046 -4.7040 4.7619 13.1105 39.7835 0.0000 0.0000 0.0000 2.8919 4.0168 -118.7739 -15.1322 -19.4221 75.6346 -1.5800 12.7091 31.2888 -11.0696 17.9690 -63.0072 12.6118 -4.9586 31.3076 4.3387 -1.7032 5.6728 -1.3974 -1.0959 -9.9213 0.2286 -1.4612 -27.6766 4.2742 -2.8016 8.8433 1.0173 -0.9170 7.1543 -0.0000 -0.0000 0.0000 -67.5928 -28.1676 14.1574 13.4463 -21.9376 -2.6177 -0.0000 0.0000 -42.5670 35.2978 -21.2406 -14.3858 -7.1250 0.0000 -0.0000 4.1214 4.5704 -3.7899 -0.0000 -0.0000 0.0000 44.9953 23.3321 7.7901 -18.0867 28.2680 -4.5902 0.0000 0.0000 15.7159 -24.0281 7.7562 -3.4431 7.1250 -0.0000 -0.0000 2.0332 -21.5000 1.1473
13.2917 13.5149 -9.6175 -340.0970 -27.0673 59.0956 0.0000 0.0000 0.0000 -5.0453 -14.2699 -34.7063 0.4226 4.1721 11.5615 -1.0810 -18.5131 2.4441 2.3932 9.6411 27.8222 0.0000 0.0000 0.0000 3.3333 4.8157 -117.3072 -15.0346 -19.3983 75.3408 -1.6384 11.6828 30.8439 -11.1874 18.0256 -63.3888 11.6545 -4.5202 31.8483 4.2562 -1.4023 5.7899 -1.0955 -0.9372 -9.9938 0.7255 -1.0886 -27.5771 3.9465 -2.4138 8.6748 0.8823 -0.7485 7.0629 -0.0000 0.0000 0.0000 -68.8229 -28.5440 13.6818 12.7754 -20.9572 -2.3723 -0.0000 0.0000 -41.3440 35.6986 -21.2213 -14.5790 -7.1250 0.0000 -0.0000 4.3713 4.4890 -4.0278 -0.0000 0.0000 0.0000 44.8708 23.0984 7.2666 -18.1415 28.3380 -4.6162 0.0000 0.0000 14.5713 -24.5537 6.8942 -3.1390 7.1250 -0.0000 -0.0000 1.6254 -22.4087 0.8834
13.3175 13.5395 -9.6645 -341.7670 -25.0966 58.9407 0.0000 0.0000 0.0000 -4.7802 -13.3377 -34.1158 0.4569 4.3364 12.0250 -1.5066 -21.1238 9.0893 2.9341 10.5875 30.9011 0.0000 0.0000 0.0000 4.0930 5.7449 -115.5189 -14.8628 -19.3551 74.8232 -1.5517 11.4593 30.1158 -11.1108 17.9889 -63.1408 11.3053 -4.4064 32.8445 3.6767 -1.2832 5.7013 -1.4996 -0.8904 -10.3814 1.1040 -0.7785 -27.5431 4.1562 -2.1603 8.6369 0.9276 -0.5900 7.0417 0.0000 -0.0000 0.0000 -69.2648 -28.3511 13.3770 12.2856 -20.2316 -2.2001 -0.0000 0.0000 -40.7946 36.1421 -21.1608 -14.7695 -7.1250 0.0000 -0.0000 4.6545 4.4423 -4.2945 0.0000 -0.0000 0.0000 45.5830 22.8343 6.9781 -18.0662 28.2418 -4.5805 0.0000 0.0000 13.9064 -26.0419 5.8636 -2.8578 7.1250 -0.0000 -0.0000 0.4984 -23.4590 0.2588
